<svg version="1.1" xmlns="http://www.w3.org/2000/svg" xmlns:xlink="http://www.w3.org/1999/xlink" width="512px" height="512px" viewBox="0,0,256,256"><g fill="#ffffff" fill-rule="nonzero" stroke="none" stroke-width="1" stroke-linecap="butt" stroke-linejoin="miter" stroke-miterlimit="10" stroke-dasharray="" stroke-dashoffset="0" font-family="none" font-weight="none" font-size="none" text-anchor="none" style="mix-blend-mode: normal"><g transform="translate(0.44241,3.51701) scale(0.5,0.5)"><g id="_1"><path d="M291.48,449.94c-5.73773,-0.00363 -10.9707,-3.28006 -13.48,-8.44l-70.5,-144.93l-144.93,-70.49c-5.33409,-2.60005 -8.63399,-8.10025 -8.41764,-14.03034c0.21635,-5.93009 3.90826,-11.17521 9.41764,-13.37966l371.91,-149.59c5.5787,-2.24858 11.96109,-0.94732 16.2142,3.3058c4.25311,4.25311 5.55437,10.63551 3.3058,16.2142l-149.6,371.94c-2.21596,5.50511 -7.46913,9.18626 -13.4,9.39zM106.1,213.94l119.18,58c3.02077,1.46892 5.46108,3.90923 6.93,6.93l58,119.18l123.79,-308.05z"></path><path d="M218.72,300.35c-6.06723,-0.0013 -11.53619,-3.65744 -13.85652,-9.26345c-2.32033,-5.60601 -1.03503,-12.05775 3.25652,-16.34655l222.35,-222.35c5.85974,-5.85698 15.35802,-5.85474 21.215,0.005c5.85698,5.85974 5.85474,15.35802 -0.005,21.215l-222.35,222.39c-2.82097,2.79797 -6.63679,4.36242 -10.61,4.35z"></path></g></g></g></svg>