<svg version="1.1" xmlns="http://www.w3.org/2000/svg" xmlns:xlink="http://www.w3.org/1999/xlink" width="24px" height="24px" viewBox="0,0,256,256"><g fill="none" fill-rule="evenodd" stroke="#ffffff" stroke-width="2" stroke-linecap="round" stroke-linejoin="round" stroke-miterlimit="10" stroke-dasharray="" stroke-dashoffset="0" font-family="none" font-weight="none" font-size="none" text-anchor="none" style="mix-blend-mode: normal"><g transform="translate(256.00271,255.99743) rotate(180) scale(10.66667,10.66667)"><g id="Social-/-23---Social,-dislike,-down,-thumb,-thumbs,-vote-icon"><path d="M21.16,14.04437h-3.08105v-12.04437h3.08105c0.46392,0 0.84,0.35817 0.84,0.8v10.44437c0,0.44183 -0.37608,0.8 -0.84,0.8z" id="Path"></path><path d="M3.47009,4.25496c0.19502,-1.50112 1.19795,-2.25496 2.98095,-2.25496h9.32952c1.2676,0 2.29839,0.97016 2.29839,2.16319v9.86675c-2.95867,0.28838 -4.438,1.32125 -4.438,4.0986l-0.00001,1.33094c0,1.40283 -1.19408,2.54004 -2.66704,2.54004c-0.56132,0 -1.10832,-0.16867 -1.56312,-0.48198c-0.62683,-0.43264 -1.02627,-1.25203 -1.02627,-2.43195v-3.8526c0,-0.32776 -0.55475,-0.59652 -1.1095,-0.59652h-2.9761c-1.25367,0 -2.27053,-0.94394 -2.29839,-2.1173l0.00129,-0.13728c0.03311,-0.90716 0.52254,-3.33271 1.46829,-8.12692z" id="Path"></path></g></g></g></svg>